<?xml version="1.0" encoding="UTF-8" standalone="no"?>
<!-- Created with Inkscape (http://www.inkscape.org/) -->

<svg
   xmlns:dc="http://purl.org/dc/elements/1.1/"
   xmlns:cc="http://creativecommons.org/ns#"
   xmlns:rdf="http://www.w3.org/1999/02/22-rdf-syntax-ns#"
   xmlns:svg="http://www.w3.org/2000/svg"
   xmlns="http://www.w3.org/2000/svg"
   xmlns:sodipodi="http://sodipodi.sourceforge.net/DTD/sodipodi-0.dtd"
   xmlns:inkscape="http://www.inkscape.org/namespaces/inkscape"
   width="669.45129"
   height="429.13998"
   id="svg2"
   version="1.1"
   inkscape:version="0.48.4 r9939"
   sodipodi:docname="bibPic.pdf">
  <defs
     id="defs4" />
  <sodipodi:namedview
     id="base"
     pagecolor="#ffffff"
     bordercolor="#666666"
     borderopacity="1.0"
     inkscape:pageopacity="0.0"
     inkscape:pageshadow="2"
     inkscape:zoom="0.35"
     inkscape:cx="316.80034"
     inkscape:cy="57.346266"
     inkscape:document-units="px"
     inkscape:current-layer="layer1"
     showgrid="false"
     fit-margin-top="10"
     fit-margin-left="10"
     fit-margin-right="10"
     fit-margin-bottom="10"
     inkscape:window-width="1366"
     inkscape:window-height="706"
     inkscape:window-x="-8"
     inkscape:window-y="-8"
     inkscape:window-maximized="1" />
  <metadata
     id="metadata7">
    <rdf:RDF>
      <cc:Work
         rdf:about="">
        <dc:format>image/svg+xml</dc:format>
        <dc:type
           rdf:resource="http://purl.org/dc/dcmitype/StillImage" />
        <dc:title></dc:title>
      </cc:Work>
    </rdf:RDF>
  </metadata>
  <g
     inkscape:label="Layer 1"
     inkscape:groupmode="layer"
     id="layer1"
     transform="translate(-58.199659,-160.56845)">
    <g
       id="PajekNet"
       inkscape:label="PajekNetwork"
       transform="translate(-1.1679586,126.99845)">

<g
   transform="translate(499.59,365.95)"
   id="g3019">
<g
   transform="matrix(-0.83532793,-0.54975199,0.54975199,-0.83532793,0,0)"
   id="g3021">
<text
   x="0"
   y="0"
   style="font-size:9px;text-anchor:middle;fill:#000000;font-family:Arial Unicode MS"
   id="text3023">authorOf</text>

</g>
</g>

<!-- Arc:     1   10 -->

<g
   transform="translate(418.51,304.21)"
   id="g3025">
<g
   transform="matrix(-0.83532793,-0.54975199,0.54975199,-0.83532793,0,0)"
   id="g3027">
<path
   inkscape:connector-curvature="0"
   d="M 0,0 -3,7.5 15,0 -3,-7.5 z"
   style="fill:#00e000"
   id="path3029" />

</g>
</g>

<line
   x1="601.95001"
   y1="424.92001"
   x2="418.51001"
   y2="304.20999"
   style="stroke:#00e000;stroke-width:2"
   id="line3031" />

<g
   transform="translate(323.03,364.85)"
   id="g3033">
<g
   transform="matrix(0.65024399,-0.75972545,0.75972545,0.65024399,0,0)"
   id="g3035">
<text
   x="0"
   y="0"
   style="font-size:9px;text-anchor:middle;fill:#000000;font-family:Arial Unicode MS"
   id="text3037">authorOf</text>

</g>
</g>

<!-- Arc:     2   10 -->

<g
   transform="translate(379.42,309.73)"
   id="g3039">
<g
   transform="matrix(0.65024399,-0.75972545,0.75972545,0.65024399,0,0)"
   id="g3041">
<path
   inkscape:connector-curvature="0"
   d="M 0,0 -3,7.5 15,0 -3,-7.5 z"
   style="fill:#00e000"
   id="path3043" />

</g>
</g>

<line
   x1="266.70001"
   y1="441.42001"
   x2="379.42001"
   y2="309.73001"
   style="stroke:#00e000;stroke-width:2"
   id="line3045" />

<g
   transform="translate(424.22,373.47)"
   id="g3047">
<g
   transform="matrix(-0.38831992,-0.92152463,0.92152463,-0.38831992,0,0)"
   id="g3049">
<text
   x="0"
   y="0"
   style="font-size:9px;text-anchor:middle;fill:#000000;font-family:Arial Unicode MS"
   id="text3051">authorOf</text>

</g>
</g>

<!-- Arc:     3   10 -->

<g
   transform="translate(406.77,314.01)"
   id="g3053">
<g
   transform="matrix(-0.38831992,-0.92152463,0.92152463,-0.38831992,0,0)"
   id="g3055">
<path
   inkscape:connector-curvature="0"
   d="M 0,0 -3,7.5 15,0 -3,-7.5 z"
   style="fill:#00e000"
   id="path3057" />

</g>
</g>

<line
   x1="460.89001"
   y1="442.45999"
   x2="406.76999"
   y2="314.01001"
   style="stroke:#00e000;stroke-width:2"
   id="line3059" />

<g
   transform="translate(551.59,343.64)"
   id="g3061">
<g
   transform="matrix(-0.46298666,-0.88636525,0.88636525,-0.46298666,0,0)"
   id="g3063">
<text
   x="0"
   y="0"
   style="font-size:9px;text-anchor:middle;fill:#000000;font-family:Arial Unicode MS"
   id="text3065">authorOf</text>

</g>
</g>

<!-- Arc:     1    7 -->

<g
   transform="translate(521.16,270.28)"
   id="g3067">
<g
   transform="matrix(-0.46298666,-0.88636525,0.88636525,-0.46298666,0,0)"
   id="g3069">
<path
   inkscape:connector-curvature="0"
   d="M 0,0 -3,7.5 15,0 -3,-7.5 z"
   style="fill:#00e000"
   id="path3071" />

</g>
</g>

<line
   x1="601.95001"
   y1="424.92001"
   x2="521.15997"
   y2="270.28"
   style="stroke:#00e000;stroke-width:2"
   id="line3073" />

<g
   transform="translate(476.91,347.93)"
   id="g3075">
<g
   transform="matrix(0.23870295,-0.97109263,0.97109263,0.23870295,0,0)"
   id="g3077">
<text
   x="0"
   y="0"
   style="font-size:9px;text-anchor:middle;fill:#000000;font-family:Arial Unicode MS"
   id="text3079">authorOf</text>

</g>
</g>

<!-- Arc:     3    7 -->

<g
   transform="translate(502.65,272.53)"
   id="g3081">
<g
   transform="matrix(0.23870295,-0.97109263,0.97109263,0.23870295,0,0)"
   id="g3083">
<path
   inkscape:connector-curvature="0"
   d="M 0,0 -3,7.5 15,0 -3,-7.5 z"
   style="fill:#00e000"
   id="path3085" />

</g>
</g>

<line
   x1="460.89001"
   y1="442.45999"
   x2="502.64999"
   y2="272.53"
   style="stroke:#00e000;stroke-width:2"
   id="line3087" />

<g
   transform="translate(89.23,327.49)"
   id="g3089">
<g
   transform="matrix(-0.1175374,-0.99306846,0.99306846,-0.1175374,0,0)"
   id="g3091">
<text
   x="0"
   y="0"
   style="font-size:9px;text-anchor:middle;fill:#000000;font-family:Arial Unicode MS"
   id="text3093">authorOf</text>

</g>
</g>

<!-- Arc:     4    8 -->

<g
   transform="translate(85.94,240.17)"
   id="g3095">
<g
   transform="matrix(-0.1175374,-0.99306846,0.99306846,-0.1175374,0,0)"
   id="g3097">
<path
   inkscape:connector-curvature="0"
   d="M 0,0 -3,7.5 15,0 -3,-7.5 z"
   style="fill:#00e000"
   id="path3099" />

</g>
</g>

<line
   x1="108.33"
   y1="429.31"
   x2="85.940002"
   y2="240.17"
   style="stroke:#00e000;stroke-width:2"
   id="line3101" />

<g
   transform="translate(161.43,244.15)"
   id="g3103">
<g
   transform="matrix(0.31051053,-0.95056994,0.95056994,0.31051053,0,0)"
   id="g3105">
<text
   x="0"
   y="0"
   style="font-size:9px;text-anchor:middle;fill:#000000;font-family:Arial Unicode MS"
   id="text3107">editorOf</text>

</g>
</g>

<!-- Arc:     4   14 -->

<g
   transform="translate(222.8,78.78)"
   id="g3109">
<g
   transform="matrix(0.31051053,-0.95056994,0.95056994,0.31051053,0,0)"
   id="g3111">
<path
   inkscape:connector-curvature="0"
   d="M 0,0 -3,7.5 15,0 -3,-7.5 z"
   style="fill:#0000ff"
   id="path3113" />

</g>
</g>

<line
   x1="108.33"
   y1="429.31"
   x2="222.8"
   y2="78.779999"
   style="stroke:#0000ff;stroke-width:2"
   id="line3115" />

<g
   transform="translate(277.44,334.28)"
   id="g3117">
<g
   transform="matrix(0.16418685,-0.98642926,0.98642926,0.16418685,0,0)"
   id="g3119">
<text
   x="0"
   y="0"
   style="font-size:9px;text-anchor:middle;fill:#000000;font-family:Arial Unicode MS"
   id="text3121">authorOf</text>

</g>
</g>

<!-- Arc:     2    9 -->

<g
   transform="translate(299.32,245.48)"
   id="g3123">
<g
   transform="matrix(0.16418685,-0.98642926,0.98642926,0.16418685,0,0)"
   id="g3125">
<path
   inkscape:connector-curvature="0"
   d="M 0,0 -3,7.5 15,0 -3,-7.5 z"
   style="fill:#00e000"
   id="path3127" />

</g>
</g>

<line
   x1="266.70001"
   y1="441.42001"
   x2="299.32001"
   y2="245.48"
   style="stroke:#00e000;stroke-width:2"
   id="line3129" />

<g
   transform="translate(324.13,321.25)"
   id="g3131">
<g
   transform="matrix(-0.26454637,-0.96437297,0.96437297,-0.26454637,0,0)"
   id="g3133">
<text
   x="0"
   y="0"
   style="font-size:9px;text-anchor:middle;fill:#000000;font-family:Arial Unicode MS"
   id="text3135">authorOf</text>

</g>
</g>

<!-- Arc:     6    9 -->

<g
   transform="translate(310.44,244.9)"
   id="g3137">
<g
   transform="matrix(-0.26454637,-0.96437297,0.96437297,-0.26454637,0,0)"
   id="g3139">
<path
   inkscape:connector-curvature="0"
   d="M 0,0 -3,7.5 15,0 -3,-7.5 z"
   style="fill:#00e000"
   id="path3141" />

</g>
</g>

<line
   x1="355.60999"
   y1="409.57001"
   x2="310.44"
   y2="244.89999"
   style="stroke:#00e000;stroke-width:2"
   id="line3143" />

<g
   transform="translate(562.12,109.05)"
   id="g3145">
<g
   transform="matrix(-0.31598024,-0.94876577,0.94876577,-0.31598024,0,0)"
   id="g3147">
<text
   x="0"
   y="0"
   style="font-size:9px;text-anchor:middle;fill:#000000;font-family:Arial Unicode MS"
   id="text3149">editorOf</text>

</g>
</g>

<!-- Arc:     5   11 -->

<g
   transform="translate(560.12,80.89)"
   id="g3151">
<g
   transform="matrix(-0.31598024,-0.94876577,0.94876577,-0.31598024,0,0)"
   id="g3153">
<path
   inkscape:connector-curvature="0"
   d="M 0,0 -3,7.5 15,0 -3,-7.5 z"
   style="fill:#0000ff"
   id="path3155" />

</g>
</g>

<line
   x1="582.53003"
   y1="148.2"
   x2="560.12"
   y2="80.889999"
   style="stroke:#0000ff;stroke-width:2"
   id="line3157" />

<g
   transform="translate(246.38,303.22)"
   id="g3159">
<g
   transform="matrix(-0.09567202,-0.99541291,0.99541291,-0.09567202,0,0)"
   id="g3161">
<text
   x="0"
   y="0"
   style="font-size:9px;text-anchor:middle;fill:#000000;font-family:Arial Unicode MS"
   id="text3163">editorOf</text>

</g>
</g>

<!-- Arc:     2   12 -->

<g
   transform="translate(241.55,179.86)"
   id="g3165">
<g
   transform="matrix(-0.09567202,-0.99541291,0.99541291,-0.09567202,0,0)"
   id="g3167">
<path
   inkscape:connector-curvature="0"
   d="M 0,0 -3,7.5 15,0 -3,-7.5 z"
   style="fill:#0000ff"
   id="path3169" />

</g>
</g>

<line
   x1="266.70001"
   y1="441.42001"
   x2="241.55"
   y2="179.86"
   style="stroke:#0000ff;stroke-width:2"
   id="line3171" />

<g
   transform="translate(310.88,179.94)"
   id="g3173">
<g
   transform="matrix(-0.57443394,-0.81855095,0.81855095,-0.57443394,0,0)"
   id="g3175">
<text
   x="0"
   y="0"
   style="font-size:9px;text-anchor:middle;fill:#000000;font-family:Arial Unicode MS"
   id="text3177">containedIn</text>

</g>
</g>

<!-- Arc:    10   14 -->

<g
   transform="translate(246.01,75.31)"
   id="g3179">
<g
   transform="matrix(-0.57443394,-0.81855095,0.81855095,-0.57443394,0,0)"
   id="g3181">
<path
   inkscape:connector-curvature="0"
   d="M 0,0 -3,7.5 15,0 -3,-7.5 z"
   style="fill:#ff0000"
   id="path3183" />

</g>
</g>

<line
   x1="396.54999"
   y1="289.84"
   x2="246.00999"
   y2="75.309998"
   style="stroke:#ff0000;stroke-width:2"
   id="line3185" />

<g
   transform="translate(522.47,154.84)"
   id="g3187">
<g
   transform="matrix(0.21899481,-0.97572602,0.97572602,0.21899481,0,0)"
   id="g3189">
<text
   x="0"
   y="0"
   style="font-size:9px;text-anchor:middle;fill:#000000;font-family:Arial Unicode MS"
   id="text3191">containedIn</text>

</g>
</g>

<!-- Arc:     7   11 -->

<g
   transform="translate(546.09,81.56)"
   id="g3193">
<g
   transform="matrix(0.21899481,-0.97572602,0.97572602,0.21899481,0,0)"
   id="g3195">
<path
   inkscape:connector-curvature="0"
   d="M 0,0 -3,7.5 15,0 -3,-7.5 z"
   style="fill:#ff0000"
   id="path3197" />

</g>
</g>

<line
   x1="508.95001"
   y1="247.03999"
   x2="546.09003"
   y2="81.559998"
   style="stroke:#ff0000;stroke-width:2"
   id="line3199" />

<g
   transform="translate(75.81,166.95)"
   id="g3201">
<g
   transform="matrix(0,-1,1,0,0,0)"
   id="g3203">
<text
   x="0"
   y="0"
   style="font-size:9px;text-anchor:middle;fill:#000000;font-family:Arial Unicode MS"
   id="text3205">containedIn</text>

</g>
</g>

<!-- Arc:     8   13 -->

<g
   transform="translate(82.81,136.04)"
   id="g3207">
<g
   transform="matrix(0,-1,1,0,0,0)"
   id="g3209">
<path
   inkscape:connector-curvature="0"
   d="M 0,0 -3,7.5 15,0 -3,-7.5 z"
   style="fill:#ff0000"
   id="path3211" />

</g>
</g>

<line
   x1="82.809998"
   y1="214.11"
   x2="82.809998"
   y2="136.03999"
   style="stroke:#ff0000;stroke-width:2"
   id="line3213" />

<g
   transform="translate(269.81,195.14)"
   id="g3215">
<g
   transform="matrix(-0.6999127,-0.71422841,0.71422841,-0.6999127,0,0)"
   id="g3217">
<text
   x="0"
   y="0"
   style="font-size:9px;text-anchor:middle;fill:#000000;font-family:Arial Unicode MS"
   id="text3219">containedIn</text>

</g>
</g>

<!-- Arc:     9   12 -->

<g
   transform="translate(257.44,172.52)"
   id="g3221">
<g
   transform="matrix(-0.6999127,-0.71422841,0.71422841,-0.6999127,0,0)"
   id="g3223">
<path
   inkscape:connector-curvature="0"
   d="M 0,0 -3,7.5 15,0 -3,-7.5 z"
   style="fill:#ff0000"
   id="path3225" />

</g>
</g>

<line
   x1="303.54999"
   y1="219.57001"
   x2="257.44"
   y2="172.52"
   style="stroke:#ff0000;stroke-width:2"
   id="line3227" />

<g
   transform="translate(350.28,246.11)"
   id="g3229">
<g
   transform="matrix(0.79779444,0.60292954,-0.60292954,0.79779444,0,0)"
   id="g3231">
<text
   x="0"
   y="0"
   style="font-size:9px;text-anchor:middle;fill:#000000;font-family:Arial Unicode MS"
   id="text3233">cites</text>

</g>
</g>

<!-- Arc:     9   10 -->

<g
   transform="translate(375.6,274.02)"
   id="g3235">
<g
   transform="matrix(0.79779444,0.60292954,-0.60292954,0.79779444,0,0)"
   id="g3237">
<path
   inkscape:connector-curvature="0"
   d="M 0,0 -3,7.5 15,0 -3,-7.5 z"
   style="fill:#ff00ff"
   id="path3239" />

</g>
</g>

<line
   x1="303.54999"
   y1="219.57001"
   x2="375.60001"
   y2="274.01999"
   style="stroke:#ff00ff;stroke-width:2"
   id="line3241" />

<g
   transform="translate(445.59,263.69)"
   id="g3243">
<g
   transform="matrix(0.93463961,-0.35559639,0.35559639,0.93463961,0,0)"
   id="g3245">
<text
   x="0"
   y="0"
   style="font-size:9px;text-anchor:middle;fill:#000000;font-family:Arial Unicode MS"
   id="text3247">cites</text>

</g>
</g>

<!-- Arc:    10    7 -->

<g
   transform="translate(484.42,256.41)"
   id="g3249">
<g
   transform="matrix(0.93463961,-0.35559639,0.35559639,0.93463961,0,0)"
   id="g3251">
<path
   inkscape:connector-curvature="0"
   d="M 0,0 -3,7.5 15,0 -3,-7.5 z"
   style="fill:#ff00ff"
   id="path3253" />

</g>
</g>

<line
   x1="396.54999"
   y1="289.84"
   x2="484.42001"
   y2="256.41"
   style="stroke:#ff00ff;stroke-width:2"
   id="line3255" />

<g
   transform="translate(313.59,95.76)"
   id="g3257">
<g
   transform="matrix(0.8550929,0.51847481,-0.51847481,0.8550929,0,0)"
   id="g3259">
<text
   x="0"
   y="0"
   style="font-size:9px;text-anchor:middle;fill:#000000;font-family:Arial Unicode MS"
   id="text3261">publishedBy</text>

</g>
</g>

<!-- Arc:    14   15 -->

<g
   transform="translate(375.08,141.24)"
   id="g3263">
<g
   transform="matrix(0.8550929,0.51847481,-0.51847481,0.8550929,0,0)"
   id="g3265">
<path
   inkscape:connector-curvature="0"
   d="M 0,0 -3,7.5 15,0 -3,-7.5 z"
   style="fill:#59ddff"
   id="path3267" />

</g>
</g>

<line
   x1="230.94"
   y1="53.82"
   x2="375.07999"
   y2="141.24001"
   style="stroke:#59ddff;stroke-width:2"
   id="line3269" />

<g
   transform="translate(603.92,76.02)"
   id="g3271">
<g
   transform="matrix(0.88056008,0.47393453,-0.47393453,0.88056008,0,0)"
   id="g3273">
<text
   x="0"
   y="0"
   style="font-size:9px;text-anchor:middle;fill:#000000;font-family:Arial Unicode MS"
   id="text3275">publishedBy</text>

</g>
</g>

<!-- Arc:    11   16 -->

<g
   transform="translate(635,100.7)"
   id="g3277">
<g
   transform="matrix(0.88056008,0.47393453,-0.47393453,0.88056008,0,0)"
   id="g3279">
<path
   inkscape:connector-curvature="0"
   d="M 0,0 -3,7.5 15,0 -3,-7.5 z"
   style="fill:#59ddff"
   id="path3281" />

</g>
</g>

<line
   x1="551.90002"
   y1="55.959999"
   x2="635"
   y2="100.7"
   style="stroke:#59ddff;stroke-width:2"
   id="line3283" />


<!-- Vertex:     1 -->

<ellipse
   d="m 611.95001,424.92001 c 0,5.52285 -4.47715,10 -10,10 -5.52285,0 -10,-4.47715 -10,-10 0,-5.52284 4.47715,-10 10,-10 5.52285,0 10,4.47716 10,10 z"
   sodipodi:ry="10"
   sodipodi:rx="10"
   sodipodi:cy="424.92001"
   sodipodi:cx="601.95001"
   cx="601.95001"
   cy="424.92001"
   rx="10"
   ry="10"
   style="fill:#d8f2ff;stroke:#660000;stroke-width:0.5"
   id="ellipse3285" />

<text
   x="616.71997"
   y="427.51999"
   style="font-size:12px;font-weight:bold;fill:#ad0000;font-family:Arial Unicode MS"
   id="text3287">Batagelj, Vladimir</text>

<text
   x="601.95001"
   y="431.57999"
   style="font-size:20px;text-anchor:middle;fill:#ad0000;font-family:Arial Unicode MS"
   id="text3289">♂</text>

<!-- Vertex:     2 -->

<ellipse
   d="m 276.70001,441.42001 c 0,5.52285 -4.47715,10 -10,10 -5.52285,0 -10,-4.47715 -10,-10 0,-5.52284 4.47715,-10 10,-10 5.52285,0 10,4.47716 10,10 z"
   sodipodi:ry="10"
   sodipodi:rx="10"
   sodipodi:cy="441.42001"
   sodipodi:cx="266.70001"
   cx="266.70001"
   cy="441.42001"
   rx="10"
   ry="10"
   style="fill:#d8f2ff;stroke:#660000;stroke-width:0.5"
   id="ellipse3291" />

<text
   x="281.48001"
   y="444.01999"
   style="font-size:12px;font-weight:bold;fill:#ad0000;font-family:Arial Unicode MS"
   id="text3293">Doreian, Patrick</text>

<text
   x="266.70001"
   y="448.07999"
   style="font-size:20px;text-anchor:middle;fill:#ad0000;font-family:Arial Unicode MS"
   id="text3295">♂</text>

<!-- Vertex:     3 -->

<ellipse
   d="m 470.89001,442.45999 c 0,5.52285 -4.47715,10 -10,10 -5.52284,0 -10,-4.47715 -10,-10 0,-5.52285 4.47716,-10 10,-10 5.52285,0 10,4.47715 10,10 z"
   sodipodi:ry="10"
   sodipodi:rx="10"
   sodipodi:cy="442.45999"
   sodipodi:cx="460.89001"
   cx="460.89001"
   cy="442.45999"
   rx="10"
   ry="10"
   style="fill:#d8f2ff;stroke:#660000;stroke-width:0.5"
   id="ellipse3297" />

<text
   x="475.66"
   y="445.06"
   style="font-size:12px;font-weight:bold;fill:#ad0000;font-family:Arial Unicode MS"
   id="text3299">Ferligoj, Anuška</text>

<text
   x="460.89001"
   y="449.12"
   style="font-size:20px;text-anchor:middle;fill:#ad0000;font-family:Arial Unicode MS"
   id="text3301">♀</text>

<!-- Vertex:     4 -->

<ellipse
   d="m 118.33,429.31 c 0,5.52285 -4.47715,10 -10,10 -5.52285,0 -9.999998,-4.47715 -9.999998,-10 0,-5.52285 4.477148,-10 9.999998,-10 5.52285,0 10,4.47715 10,10 z"
   sodipodi:ry="10"
   sodipodi:rx="10"
   sodipodi:cy="429.31"
   sodipodi:cx="108.33"
   cx="108.33"
   cy="429.31"
   rx="10"
   ry="10"
   style="fill:#d8f2ff;stroke:#660000;stroke-width:0.5"
   id="ellipse3303" />

<text
   x="123.1"
   y="431.91"
   style="font-size:12px;font-weight:bold;fill:#ad0000;font-family:Arial Unicode MS"
   id="text3305">Granovetter, Mark</text>

<text
   x="108.33"
   y="435.97"
   style="font-size:20px;text-anchor:middle;fill:#ad0000;font-family:Arial Unicode MS"
   id="text3307">♂</text>

<!-- Vertex:     5 -->

<ellipse
   d="m 592.53003,148.2 c 0,5.52284 -4.47715,10 -10,10 -5.52285,0 -10,-4.47716 -10,-10 0,-5.52285 4.47715,-10 10,-10 5.52285,0 10,4.47715 10,10 z"
   sodipodi:ry="10"
   sodipodi:rx="10"
   sodipodi:cy="148.2"
   sodipodi:cx="582.53003"
   cx="582.53003"
   cy="148.2"
   rx="10"
   ry="10"
   style="fill:#d8f2ff;stroke:#660000;stroke-width:0.5"
   id="ellipse3309" />

<text
   x="597.29999"
   y="150.8"
   style="font-size:12px;font-weight:bold;fill:#ad0000;font-family:Arial Unicode MS"
   id="text3311">Moustaki, Irini</text>

<text
   x="582.53003"
   y="154.87"
   style="font-size:20px;text-anchor:middle;fill:#ad0000;font-family:Arial Unicode MS"
   id="text3313">♀</text>

<!-- Vertex:     6 -->

<ellipse
   d="m 365.60999,409.57001 c 0,5.52284 -4.47716,10 -10,10 -5.52285,0 -10,-4.47716 -10,-10 0,-5.52285 4.47715,-10 10,-10 5.52284,0 10,4.47715 10,10 z"
   sodipodi:ry="10"
   sodipodi:rx="10"
   sodipodi:cy="409.57001"
   sodipodi:cx="355.60999"
   cx="355.60999"
   cy="409.57001"
   rx="10"
   ry="10"
   style="fill:#d8f2ff;stroke:#660000;stroke-width:0.5"
   id="ellipse3315" />

<text
   x="370.38"
   y="412.17001"
   style="font-size:12px;font-weight:bold;fill:#ad0000;font-family:Arial Unicode MS"
   id="text3317">Mrvar, Andrej</text>

<text
   x="355.60999"
   y="416.23001"
   style="font-size:20px;text-anchor:middle;fill:#ad0000;font-family:Arial Unicode MS"
   id="text3319">♂</text>

<!-- Vertex:     7 -->

<ellipse
   d="m 518.95001,247.03999 c 0,5.52285 -4.47715,10 -10,10 -5.52285,0 -10,-4.47715 -10,-10 0,-5.52284 4.47715,-10 10,-10 5.52285,0 10,4.47716 10,10 z"
   sodipodi:ry="10"
   sodipodi:rx="10"
   sodipodi:cy="247.03999"
   sodipodi:cx="508.95001"
   cx="508.95001"
   cy="247.03999"
   rx="10"
   ry="10"
   style="fill:#ff0000;stroke:#660000;stroke-width:0.5"
   id="ellipse3321" />

<text
   x="523.71997"
   y="249.64999"
   style="font-size:12px;font-weight:bold;fill:#ad0000;font-family:Arial Unicode MS"
   id="text3323">Clustering with</text>

<text
   x="523.71997"
   y="261.64999"
   style="font-size:12px;font-weight:bold;fill:#ad0000;font-family:Arial Unicode MS"
   id="text3325">relational constraint</text>

<text
   x="508.95001"
   y="253.71001"
   style="font-size:20px;text-anchor:middle;fill:#ad0000;font-family:Arial Unicode MS"
   id="text3327"></text>

<!-- Vertex:     8 -->

<ellipse
   d="m 92.809998,214.11 c 0,5.52285 -4.477153,10 -10,10 -5.522848,0 -10,-4.47715 -10,-10 0,-5.52285 4.477152,-10 10,-10 5.522847,0 10,4.47715 10,10 z"
   sodipodi:ry="10"
   sodipodi:rx="10"
   sodipodi:cy="214.11"
   sodipodi:cx="82.809998"
   cx="82.809998"
   cy="214.11"
   rx="10"
   ry="10"
   style="fill:#ff0000;stroke:#660000;stroke-width:0.5"
   id="ellipse3329" />

<text
   x="97.580002"
   y="216.71001"
   style="font-size:12px;font-weight:bold;fill:#ad0000;font-family:Arial Unicode MS"
   id="text3331">The Strength of Weak Ties</text>

<text
   x="82.809998"
   y="220.78"
   style="font-size:20px;text-anchor:middle;fill:#ad0000;font-family:Arial Unicode MS"
   id="text3333"></text>

<!-- Vertex:     9 -->

<ellipse
   d="m 313.54999,219.57001 c 0,5.52284 -4.47715,10 -10,10 -5.52285,0 -10,-4.47716 -10,-10 0,-5.52285 4.47715,-10 10,-10 5.52285,0 10,4.47715 10,10 z"
   sodipodi:ry="10"
   sodipodi:rx="10"
   sodipodi:cy="219.57001"
   sodipodi:cx="303.54999"
   cx="303.54999"
   cy="219.57001"
   rx="10"
   ry="10"
   style="fill:#ff0000;stroke:#660000;stroke-width:0.5"
   id="ellipse3335" />

<text
   x="318.32001"
   y="222.17"
   style="font-size:12px;font-weight:bold;fill:#ad0000;font-family:Arial Unicode MS"
   id="text3337">Partitioning signed social networks</text>

<text
   x="303.54999"
   y="226.24001"
   style="font-size:20px;text-anchor:middle;fill:#ad0000;font-family:Arial Unicode MS"
   id="text3339"></text>

<!-- Vertex:    10 -->

<ellipse
   d="m 406.54999,289.84 c 0,5.52284 -4.47715,10 -10,10 -5.52285,0 -10,-4.47716 -10,-10 0,-5.52285 4.47715,-10 10,-10 5.52285,0 10,4.47715 10,10 z"
   sodipodi:ry="10"
   sodipodi:rx="10"
   sodipodi:cy="289.84"
   sodipodi:cx="396.54999"
   cx="396.54999"
   cy="289.84"
   rx="10"
   ry="10"
   style="fill:#ffff00;stroke:#660000;stroke-width:0.5"
   id="ellipse3341" />

<text
   x="411.32001"
   y="292.44"
   style="font-size:12px;font-weight:bold;fill:#ad0000;font-family:Arial Unicode MS"
   id="text3343">Generalized Blockmodeling</text>

<text
   x="396.54999"
   y="296.5"
   style="font-size:20px;text-anchor:middle;fill:#ad0000;font-family:Arial Unicode MS"
   id="text3345"></text>

<!-- Vertex:    11 -->

<ellipse
   d="m 561.90002,55.959999 c 0,5.522848 -4.47715,10 -10,10 -5.52284,0 -10,-4.477152 -10,-10 0,-5.522847 4.47716,-10 10,-10 5.52285,0 10,4.477153 10,10 z"
   sodipodi:ry="10"
   sodipodi:rx="10"
   sodipodi:cy="55.959999"
   sodipodi:cx="551.90002"
   cx="551.90002"
   cy="55.959999"
   rx="10"
   ry="10"
   style="fill:#7fff00;stroke:#660000;stroke-width:0.5"
   id="ellipse3347" />

<text
   x="566.66998"
   y="58.57"
   style="font-size:12px;font-weight:bold;fill:#ad0000;font-family:Arial Unicode MS"
   id="text3349">Psychometrika</text>

<text
   x="551.90002"
   y="62.630001"
   style="font-size:20px;text-anchor:middle;fill:#ad0000;font-family:Arial Unicode MS"
   id="text3351"></text>

<!-- Vertex:    12 -->

<ellipse
   d="m 249.12,153.72 c 0,5.52285 -4.47716,10 -10,10 -5.52285,0 -10,-4.47715 -10,-10 0,-5.52285 4.47715,-10 10,-10 5.52284,0 10,4.47715 10,10 z"
   sodipodi:ry="10"
   sodipodi:rx="10"
   sodipodi:cy="153.72"
   sodipodi:cx="239.12"
   cx="239.12"
   cy="153.72"
   rx="10"
   ry="10"
   style="fill:#7fff00;stroke:#660000;stroke-width:0.5"
   id="ellipse3353" />

<text
   x="253.89"
   y="156.33"
   style="font-size:12px;font-weight:bold;fill:#ad0000;font-family:Arial Unicode MS"
   id="text3355">Social Networks</text>

<text
   x="239.12"
   y="160.39"
   style="font-size:20px;text-anchor:middle;fill:#ad0000;font-family:Arial Unicode MS"
   id="text3357"></text>

<!-- Vertex:    13 -->

<ellipse
   d="m 92.809998,109.79 c 0,5.52285 -4.477153,10 -10,10 -5.522848,0 -10,-4.47715 -10,-10 0,-5.52285 4.477152,-9.999999 10,-9.999999 5.522847,0 10,4.477149 10,9.999999 z"
   sodipodi:ry="10"
   sodipodi:rx="10"
   sodipodi:cy="109.79"
   sodipodi:cx="82.809998"
   cx="82.809998"
   cy="109.79"
   rx="10"
   ry="10"
   style="fill:#7fff00;stroke:#660000;stroke-width:0.5"
   id="ellipse3359" />

<text
   x="97.580002"
   y="112.39"
   style="font-size:12px;font-weight:bold;fill:#ad0000;font-family:Arial Unicode MS"
   id="text3361">The American</text>

<text
   x="97.580002"
   y="124.39"
   style="font-size:12px;font-weight:bold;fill:#ad0000;font-family:Arial Unicode MS"
   id="text3363">Journal of Sociology</text>

<text
   x="82.809998"
   y="116.45"
   style="font-size:20px;text-anchor:middle;fill:#ad0000;font-family:Arial Unicode MS"
   id="text3365"></text>

<!-- Vertex:    14 -->

<ellipse
   d="m 240.94,53.82 c 0,5.522847 -4.47715,10 -10,10 -5.52285,0 -10,-4.477153 -10,-10 0,-5.522848 4.47715,-10 10,-10 5.52285,0 10,4.477152 10,10 z"
   sodipodi:ry="10"
   sodipodi:rx="10"
   sodipodi:cy="53.82"
   sodipodi:cx="230.94"
   cx="230.94"
   cy="53.82"
   rx="10"
   ry="10"
   style="fill:#ffffff;stroke:#660000;stroke-width:0.5"
   id="ellipse3367" />

<text
   x="245.71001"
   y="56.419998"
   style="font-size:12px;font-weight:bold;fill:#ad0000;font-family:Arial Unicode MS"
   id="text3369">Structural Analysis in</text>

<text
   x="245.71001"
   y="68.419998"
   style="font-size:12px;font-weight:bold;fill:#ad0000;font-family:Arial Unicode MS"
   id="text3371">the Social Sciences</text>

<text
   x="230.94"
   y="60.490002"
   style="font-size:20px;text-anchor:middle;fill:#ad0000;font-family:Arial Unicode MS"
   id="text3373"></text>

<!-- Vertex:    15 -->

<ellipse
   d="m 407.54999,154.81 c 0,5.52285 -4.47715,10 -10,10 -5.52285,0 -10,-4.47715 -10,-10 0,-5.52285 4.47715,-10 10,-10 5.52285,0 10,4.47715 10,10 z"
   sodipodi:ry="10"
   sodipodi:rx="10"
   sodipodi:cy="154.81"
   sodipodi:cx="397.54999"
   cx="397.54999"
   cy="154.81"
   rx="10"
   ry="10"
   style="fill:#ffd8f2;stroke:#660000;stroke-width:0.5"
   id="ellipse3375" />

<text
   x="412.32001"
   y="157.42"
   style="font-size:12px;font-weight:bold;fill:#ad0000;font-family:Arial Unicode MS"
   id="text3377">Cambridge</text>

<text
   x="412.32001"
   y="169.42"
   style="font-size:12px;font-weight:bold;fill:#ad0000;font-family:Arial Unicode MS"
   id="text3379">University Press</text>

<text
   x="397.54999"
   y="161.48"
   style="font-size:20px;text-anchor:middle;fill:#ad0000;font-family:Arial Unicode MS"
   id="text3381"></text>

<!-- Vertex:    16 -->

<ellipse
   d="m 668.14001,113.1 c 0,5.52285 -4.47715,10 -10,10 -5.52284,0 -10,-4.47715 -10,-10 0,-5.52285 4.47716,-10 10,-10 5.52285,0 10,4.47715 10,10 z"
   sodipodi:ry="10"
   sodipodi:rx="10"
   sodipodi:cy="113.1"
   sodipodi:cx="658.14001"
   cx="658.14001"
   cy="113.1"
   rx="10"
   ry="10"
   style="fill:#ffd8f2;stroke:#660000;stroke-width:0.5"
   id="ellipse3383" />

<text
   x="672.90997"
   y="115.7"
   style="font-size:12px;font-weight:bold;fill:#ad0000;font-family:Arial Unicode MS"
   id="text3385">Springer</text>

<text
   x="658.14001"
   y="119.77"
   style="font-size:20px;text-anchor:middle;fill:#ad0000;font-family:Arial Unicode MS"
   id="text3387"></text>

</g>
  </g>
</svg>
